<mxfile host="app.diagrams.net" modified="2024-03-23T18:23:56.073Z" agent="Mozilla/5.0 (Windows NT 10.0; Win64; x64) AppleWebKit/537.36 (KHTML, like Gecko) Chrome/123.0.0.0 Safari/537.36" etag="IOUmPYTfahYhTcxOZUvE" version="24.0.6" type="device">
  <diagram name="Page-1" id="2YBvvXClWsGukQMizWep">
    <mxGraphModel dx="1235" dy="460" grid="1" gridSize="10" guides="1" tooltips="1" connect="1" arrows="1" fold="1" page="1" pageScale="1" pageWidth="850" pageHeight="1100" math="0" shadow="0">
      <root>
        <mxCell id="0" />
        <mxCell id="1" parent="0" />
        <mxCell id="DJf0P2irUcEbUrIMb99J-1" value="" style="html=1;points=[[0,0,0,0,5],[0,1,0,0,-5],[1,0,0,0,5],[1,1,0,0,-5]];perimeter=orthogonalPerimeter;outlineConnect=0;targetShapes=umlLifeline;portConstraint=eastwest;newEdgeStyle={&quot;curved&quot;:0,&quot;rounded&quot;:0};" parent="1" vertex="1">
          <mxGeometry x="455" y="730" width="10" height="390" as="geometry" />
        </mxCell>
        <mxCell id="f-BYqIaekQ4qByGMniUM-7" value="" style="shape=umlLifeline;perimeter=lifelinePerimeter;whiteSpace=wrap;html=1;container=1;dropTarget=0;collapsible=0;recursiveResize=0;outlineConnect=0;portConstraint=eastwest;newEdgeStyle={&quot;curved&quot;:0,&quot;rounded&quot;:0};participant=umlActor;" parent="1" vertex="1">
          <mxGeometry x="90" y="640" width="20" height="550" as="geometry" />
        </mxCell>
        <mxCell id="f-BYqIaekQ4qByGMniUM-9" value="Security System FE" style="whiteSpace=wrap;html=1;" parent="1" vertex="1">
          <mxGeometry x="240" y="640" width="80" height="40" as="geometry" />
        </mxCell>
        <mxCell id="f-BYqIaekQ4qByGMniUM-10" value="" style="endArrow=none;dashed=1;html=1;strokeWidth=1;rounded=0;" parent="1" edge="1">
          <mxGeometry width="50" height="50" relative="1" as="geometry">
            <mxPoint x="280" y="1190" as="sourcePoint" />
            <mxPoint x="280" y="680" as="targetPoint" />
          </mxGeometry>
        </mxCell>
        <mxCell id="f-BYqIaekQ4qByGMniUM-28" value="Security System BE" style="whiteSpace=wrap;html=1;" parent="1" vertex="1">
          <mxGeometry x="420" y="640" width="80" height="40" as="geometry" />
        </mxCell>
        <mxCell id="f-BYqIaekQ4qByGMniUM-29" value="" style="endArrow=none;dashed=1;html=1;strokeWidth=1;rounded=0;" parent="1" source="DJf0P2irUcEbUrIMb99J-1" edge="1">
          <mxGeometry width="50" height="50" relative="1" as="geometry">
            <mxPoint x="460" y="1190" as="sourcePoint" />
            <mxPoint x="460" y="680" as="targetPoint" />
          </mxGeometry>
        </mxCell>
        <mxCell id="f-BYqIaekQ4qByGMniUM-51" value="" style="html=1;points=[[0,0,0,0,5],[0,1,0,0,-5],[1,0,0,0,5],[1,1,0,0,-5]];perimeter=orthogonalPerimeter;outlineConnect=0;targetShapes=umlLifeline;portConstraint=eastwest;newEdgeStyle={&quot;curved&quot;:0,&quot;rounded&quot;:0};" parent="1" vertex="1">
          <mxGeometry x="460" y="760" width="10" height="30" as="geometry" />
        </mxCell>
        <mxCell id="f-BYqIaekQ4qByGMniUM-13" value="alt" style="shape=umlFrame;whiteSpace=wrap;html=1;pointerEvents=0;width=30;height=15;fontSize=10;strokeWidth=1;" parent="1" vertex="1">
          <mxGeometry x="10" y="790" width="520" height="370" as="geometry" />
        </mxCell>
        <mxCell id="f-BYqIaekQ4qByGMniUM-19" value="[if log in attempts &amp;gt;&lt;div&gt;max attempts]&lt;/div&gt;" style="text;html=1;align=left;verticalAlign=middle;resizable=0;points=[];autosize=1;strokeColor=none;fillColor=none;fontSize=8;fontStyle=0" parent="1" vertex="1">
          <mxGeometry x="10" y="799.9966666666667" width="90" height="30" as="geometry" />
        </mxCell>
        <mxCell id="f-BYqIaekQ4qByGMniUM-40" value="alt" style="shape=umlFrame;whiteSpace=wrap;html=1;pointerEvents=0;width=30;height=15;fontSize=10;" parent="1" vertex="1">
          <mxGeometry x="20" y="910" width="490" height="240" as="geometry" />
        </mxCell>
        <mxCell id="f-BYqIaekQ4qByGMniUM-41" value="[if valid credentials]" style="text;html=1;align=left;verticalAlign=middle;resizable=0;points=[];autosize=1;strokeColor=none;fillColor=none;fontSize=8;" parent="1" vertex="1">
          <mxGeometry x="20" y="919.9966666666667" width="90" height="20" as="geometry" />
        </mxCell>
        <mxCell id="f-BYqIaekQ4qByGMniUM-42" value="" style="endArrow=none;dashed=1;html=1;rounded=0;exitX=0.002;exitY=0.121;exitDx=0;exitDy=0;exitPerimeter=0;strokeWidth=1;entryX=0.999;entryY=0.12;entryDx=0;entryDy=0;entryPerimeter=0;dashPattern=8 8;" parent="1" edge="1">
          <mxGeometry width="50" height="50" relative="1" as="geometry">
            <mxPoint x="10.779999999999964" y="850.37" as="sourcePoint" />
            <mxPoint x="529.22" y="850.0000000000001" as="targetPoint" />
          </mxGeometry>
        </mxCell>
        <mxCell id="f-BYqIaekQ4qByGMniUM-43" value="[else]" style="text;html=1;align=left;verticalAlign=middle;resizable=0;points=[];autosize=1;strokeColor=none;fillColor=none;fontSize=8;fontStyle=0" parent="1" vertex="1">
          <mxGeometry x="10" y="850" width="40" height="20" as="geometry" />
        </mxCell>
        <mxCell id="f-BYqIaekQ4qByGMniUM-46" value="" style="endArrow=classic;html=1;rounded=0;" parent="1" edge="1">
          <mxGeometry width="50" height="50" relative="1" as="geometry">
            <mxPoint x="280" y="1050" as="sourcePoint" />
            <mxPoint x="100" y="1050" as="targetPoint" />
          </mxGeometry>
        </mxCell>
        <mxCell id="f-BYqIaekQ4qByGMniUM-47" value="Reroute to Dashboard" style="edgeLabel;html=1;align=center;verticalAlign=middle;resizable=0;points=[];fontSize=8;" parent="f-BYqIaekQ4qByGMniUM-46" vertex="1" connectable="0">
          <mxGeometry x="-0.0206" y="-2" relative="1" as="geometry">
            <mxPoint y="-7" as="offset" />
          </mxGeometry>
        </mxCell>
        <mxCell id="f-BYqIaekQ4qByGMniUM-48" value="" style="endArrow=none;dashed=1;html=1;rounded=0;exitX=0.008;exitY=-0.02;exitDx=0;exitDy=0;exitPerimeter=0;entryX=1.001;entryY=0.625;entryDx=0;entryDy=0;entryPerimeter=0;dashPattern=8 8;" parent="1" source="f-BYqIaekQ4qByGMniUM-55" target="f-BYqIaekQ4qByGMniUM-40" edge="1">
          <mxGeometry width="50" height="50" relative="1" as="geometry">
            <mxPoint x="30" y="1051" as="sourcePoint" />
            <mxPoint x="510" y="1050" as="targetPoint" />
          </mxGeometry>
        </mxCell>
        <mxCell id="f-BYqIaekQ4qByGMniUM-52" value="Check client&#39;s attempts" style="html=1;align=left;spacingLeft=2;endArrow=open;rounded=0;edgeStyle=orthogonalEdgeStyle;curved=0;rounded=0;fontSize=8;endFill=0;" parent="1" source="DJf0P2irUcEbUrIMb99J-1" target="f-BYqIaekQ4qByGMniUM-51" edge="1">
          <mxGeometry relative="1" as="geometry">
            <mxPoint x="460" y="730" as="sourcePoint" />
            <Array as="points">
              <mxPoint x="490" y="750" />
              <mxPoint x="490" y="770" />
            </Array>
          </mxGeometry>
        </mxCell>
        <mxCell id="f-BYqIaekQ4qByGMniUM-53" value="" style="html=1;points=[[0,0,0,0,5],[0,1,0,0,-5],[1,0,0,0,5],[1,1,0,0,-5]];perimeter=orthogonalPerimeter;outlineConnect=0;targetShapes=umlLifeline;portConstraint=eastwest;newEdgeStyle={&quot;curved&quot;:0,&quot;rounded&quot;:0};" parent="1" vertex="1">
          <mxGeometry x="460" y="880" width="10" height="30" as="geometry" />
        </mxCell>
        <mxCell id="f-BYqIaekQ4qByGMniUM-54" value="Validate credentials" style="html=1;align=left;spacingLeft=2;endArrow=open;rounded=0;edgeStyle=orthogonalEdgeStyle;curved=0;rounded=0;fontSize=8;endFill=0;" parent="1" target="f-BYqIaekQ4qByGMniUM-53" edge="1">
          <mxGeometry relative="1" as="geometry">
            <mxPoint x="465" y="860" as="sourcePoint" />
            <Array as="points">
              <mxPoint x="490" y="860" />
              <mxPoint x="490" y="890" />
            </Array>
          </mxGeometry>
        </mxCell>
        <mxCell id="f-BYqIaekQ4qByGMniUM-55" value="[else]" style="text;html=1;align=left;verticalAlign=middle;resizable=0;points=[];autosize=1;strokeColor=none;fillColor=none;fontSize=8;" parent="1" vertex="1">
          <mxGeometry x="20" y="1059.9966666666667" width="40" height="20" as="geometry" />
        </mxCell>
        <mxCell id="f-BYqIaekQ4qByGMniUM-58" value="" style="endArrow=classic;html=1;rounded=0;" parent="1" edge="1">
          <mxGeometry width="50" height="50" relative="1" as="geometry">
            <mxPoint x="280" y="1140" as="sourcePoint" />
            <mxPoint x="100" y="1140" as="targetPoint" />
          </mxGeometry>
        </mxCell>
        <mxCell id="f-BYqIaekQ4qByGMniUM-59" value="Show msg &quot;Incorrect credentials!&quot;" style="edgeLabel;html=1;align=center;verticalAlign=middle;resizable=0;points=[];fontSize=8;" parent="f-BYqIaekQ4qByGMniUM-58" vertex="1" connectable="0">
          <mxGeometry x="-0.0206" y="-2" relative="1" as="geometry">
            <mxPoint y="-7" as="offset" />
          </mxGeometry>
        </mxCell>
        <mxCell id="f-BYqIaekQ4qByGMniUM-60" value="" style="html=1;points=[[0,0,0,0,5],[0,1,0,0,-5],[1,0,0,0,5],[1,1,0,0,-5]];perimeter=orthogonalPerimeter;outlineConnect=0;targetShapes=umlLifeline;portConstraint=eastwest;newEdgeStyle={&quot;curved&quot;:0,&quot;rounded&quot;:0};" parent="1" vertex="1">
          <mxGeometry x="460" y="1090" width="10" height="30" as="geometry" />
        </mxCell>
        <mxCell id="f-BYqIaekQ4qByGMniUM-61" value="Increment client&#39;s attempts" style="html=1;align=left;spacingLeft=2;endArrow=open;rounded=0;edgeStyle=orthogonalEdgeStyle;curved=0;rounded=0;fontSize=8;endFill=0;" parent="1" target="f-BYqIaekQ4qByGMniUM-60" edge="1">
          <mxGeometry relative="1" as="geometry">
            <mxPoint x="465" y="1070" as="sourcePoint" />
            <Array as="points">
              <mxPoint x="490" y="1070" />
              <mxPoint x="490" y="1100" />
            </Array>
          </mxGeometry>
        </mxCell>
        <mxCell id="f-BYqIaekQ4qByGMniUM-62" value="" style="html=1;points=[[0,0,0,0,5],[0,1,0,0,-5],[1,0,0,0,5],[1,1,0,0,-5]];perimeter=orthogonalPerimeter;outlineConnect=0;targetShapes=umlLifeline;portConstraint=eastwest;newEdgeStyle={&quot;curved&quot;:0,&quot;rounded&quot;:0};" parent="1" vertex="1">
          <mxGeometry x="460" y="930" width="10" height="30" as="geometry" />
        </mxCell>
        <mxCell id="f-BYqIaekQ4qByGMniUM-63" value="Reset client&#39;s attempts" style="html=1;align=left;spacingLeft=2;endArrow=open;rounded=0;edgeStyle=orthogonalEdgeStyle;curved=0;rounded=0;fontSize=8;endFill=0;" parent="1" target="f-BYqIaekQ4qByGMniUM-62" edge="1">
          <mxGeometry x="0.0769" relative="1" as="geometry">
            <mxPoint x="465" y="920" as="sourcePoint" />
            <Array as="points">
              <mxPoint x="490" y="920" />
              <mxPoint x="490" y="940" />
            </Array>
            <mxPoint as="offset" />
          </mxGeometry>
        </mxCell>
        <mxCell id="f-BYqIaekQ4qByGMniUM-66" value="" style="html=1;points=[[0,0,0,0,5],[0,1,0,0,-5],[1,0,0,0,5],[1,1,0,0,-5]];perimeter=orthogonalPerimeter;outlineConnect=0;targetShapes=umlLifeline;portConstraint=eastwest;newEdgeStyle={&quot;curved&quot;:0,&quot;rounded&quot;:0};" parent="1" vertex="1">
          <mxGeometry x="275" y="1000" width="10" height="50" as="geometry" />
        </mxCell>
        <mxCell id="f-BYqIaekQ4qByGMniUM-68" value="" style="html=1;points=[[0,0,0,0,5],[0,1,0,0,-5],[1,0,0,0,5],[1,1,0,0,-5]];perimeter=orthogonalPerimeter;outlineConnect=0;targetShapes=umlLifeline;portConstraint=eastwest;newEdgeStyle={&quot;curved&quot;:0,&quot;rounded&quot;:0};" parent="1" vertex="1">
          <mxGeometry x="460" y="970" width="10" height="30" as="geometry" />
        </mxCell>
        <mxCell id="f-BYqIaekQ4qByGMniUM-69" value="Generate &amp;amp; sign JWT" style="html=1;align=left;spacingLeft=2;endArrow=open;rounded=0;edgeStyle=orthogonalEdgeStyle;curved=0;rounded=0;fontSize=8;endFill=0;" parent="1" target="f-BYqIaekQ4qByGMniUM-68" edge="1">
          <mxGeometry x="0.1429" relative="1" as="geometry">
            <mxPoint x="460" y="960" as="sourcePoint" />
            <Array as="points">
              <mxPoint x="490" y="960" />
              <mxPoint x="490" y="980" />
            </Array>
            <mxPoint as="offset" />
          </mxGeometry>
        </mxCell>
        <mxCell id="f-BYqIaekQ4qByGMniUM-70" value="" style="whiteSpace=wrap;html=1;" parent="1" vertex="1">
          <mxGeometry x="275" y="710" width="10" height="20" as="geometry" />
        </mxCell>
        <mxCell id="f-BYqIaekQ4qByGMniUM-11" style="edgeStyle=elbowEdgeStyle;rounded=0;orthogonalLoop=1;jettySize=auto;html=1;elbow=vertical;curved=0;" parent="1" edge="1">
          <mxGeometry relative="1" as="geometry">
            <mxPoint x="280" y="710" as="targetPoint" />
            <mxPoint x="100.10000000000002" y="710" as="sourcePoint" />
          </mxGeometry>
        </mxCell>
        <mxCell id="f-BYqIaekQ4qByGMniUM-12" value="Input credentials &amp;amp; Submit" style="edgeLabel;html=1;align=center;verticalAlign=middle;resizable=0;points=[];fontSize=8;" parent="f-BYqIaekQ4qByGMniUM-11" vertex="1" connectable="0">
          <mxGeometry x="-0.0819" y="-1" relative="1" as="geometry">
            <mxPoint y="-11" as="offset" />
          </mxGeometry>
        </mxCell>
        <mxCell id="f-BYqIaekQ4qByGMniUM-30" style="edgeStyle=elbowEdgeStyle;rounded=0;orthogonalLoop=1;jettySize=auto;html=1;elbow=vertical;curved=0;endArrow=open;endFill=0;" parent="1" edge="1">
          <mxGeometry relative="1" as="geometry">
            <mxPoint x="459.9" y="730" as="targetPoint" />
            <mxPoint x="280" y="730" as="sourcePoint" />
          </mxGeometry>
        </mxCell>
        <mxCell id="f-BYqIaekQ4qByGMniUM-31" value="Send Auth request" style="edgeLabel;html=1;align=center;verticalAlign=middle;resizable=0;points=[];fontSize=8;" parent="f-BYqIaekQ4qByGMniUM-30" vertex="1" connectable="0">
          <mxGeometry x="-0.0819" y="-1" relative="1" as="geometry">
            <mxPoint y="-11" as="offset" />
          </mxGeometry>
        </mxCell>
        <mxCell id="f-BYqIaekQ4qByGMniUM-72" value="" style="whiteSpace=wrap;html=1;" parent="1" vertex="1">
          <mxGeometry x="275" y="820" width="10" height="20" as="geometry" />
        </mxCell>
        <mxCell id="f-BYqIaekQ4qByGMniUM-35" value="" style="endArrow=open;html=1;rounded=0;dashed=1;endFill=0;" parent="1" source="DJf0P2irUcEbUrIMb99J-1" edge="1">
          <mxGeometry width="50" height="50" relative="1" as="geometry">
            <mxPoint x="450" y="820" as="sourcePoint" />
            <mxPoint x="280" y="820" as="targetPoint" />
          </mxGeometry>
        </mxCell>
        <mxCell id="f-BYqIaekQ4qByGMniUM-37" value="return 429 HTTP status code" style="edgeLabel;html=1;align=center;verticalAlign=middle;resizable=0;points=[];fontSize=8;" parent="f-BYqIaekQ4qByGMniUM-35" vertex="1" connectable="0">
          <mxGeometry x="-0.0206" y="-2" relative="1" as="geometry">
            <mxPoint y="-7" as="offset" />
          </mxGeometry>
        </mxCell>
        <mxCell id="f-BYqIaekQ4qByGMniUM-38" value="" style="endArrow=classic;html=1;rounded=0;" parent="1" edge="1">
          <mxGeometry width="50" height="50" relative="1" as="geometry">
            <mxPoint x="280" y="840" as="sourcePoint" />
            <mxPoint x="100" y="840" as="targetPoint" />
          </mxGeometry>
        </mxCell>
        <mxCell id="f-BYqIaekQ4qByGMniUM-39" value="Show msg &quot;Too many log in attempts!&quot;" style="edgeLabel;html=1;align=center;verticalAlign=middle;resizable=0;points=[];fontSize=8;" parent="f-BYqIaekQ4qByGMniUM-38" vertex="1" connectable="0">
          <mxGeometry x="-0.0206" y="-2" relative="1" as="geometry">
            <mxPoint y="-7" as="offset" />
          </mxGeometry>
        </mxCell>
        <mxCell id="f-BYqIaekQ4qByGMniUM-44" value="" style="endArrow=open;html=1;rounded=0;dashed=1;endFill=0;" parent="1" edge="1">
          <mxGeometry width="50" height="50" relative="1" as="geometry">
            <mxPoint x="460" y="1000" as="sourcePoint" />
            <mxPoint x="280" y="1000" as="targetPoint" />
          </mxGeometry>
        </mxCell>
        <mxCell id="f-BYqIaekQ4qByGMniUM-45" value="return 200 HTTP status code w/ JWT" style="edgeLabel;html=1;align=center;verticalAlign=middle;resizable=0;points=[];fontSize=8;" parent="f-BYqIaekQ4qByGMniUM-44" vertex="1" connectable="0">
          <mxGeometry x="-0.0206" y="-2" relative="1" as="geometry">
            <mxPoint y="-7" as="offset" />
          </mxGeometry>
        </mxCell>
        <mxCell id="f-BYqIaekQ4qByGMniUM-73" value="" style="whiteSpace=wrap;html=1;" parent="1" vertex="1">
          <mxGeometry x="275" y="1120" width="10" height="20" as="geometry" />
        </mxCell>
        <mxCell id="f-BYqIaekQ4qByGMniUM-56" value="" style="endArrow=open;html=1;rounded=0;dashed=1;endFill=0;" parent="1" edge="1">
          <mxGeometry width="50" height="50" relative="1" as="geometry">
            <mxPoint x="460" y="1120" as="sourcePoint" />
            <mxPoint x="280" y="1120" as="targetPoint" />
          </mxGeometry>
        </mxCell>
        <mxCell id="f-BYqIaekQ4qByGMniUM-57" value="return 401 HTTP status code" style="edgeLabel;html=1;align=center;verticalAlign=middle;resizable=0;points=[];fontSize=8;" parent="f-BYqIaekQ4qByGMniUM-56" vertex="1" connectable="0">
          <mxGeometry x="-0.0206" y="-2" relative="1" as="geometry">
            <mxPoint y="-7" as="offset" />
          </mxGeometry>
        </mxCell>
        <mxCell id="DJf0P2irUcEbUrIMb99J-2" value="" style="endArrow=none;dashed=1;html=1;strokeWidth=1;rounded=0;" parent="1" target="DJf0P2irUcEbUrIMb99J-1" edge="1">
          <mxGeometry width="50" height="50" relative="1" as="geometry">
            <mxPoint x="460" y="1190" as="sourcePoint" />
            <mxPoint x="460" y="680" as="targetPoint" />
          </mxGeometry>
        </mxCell>
        <mxCell id="DJf0P2irUcEbUrIMb99J-5" value="" style="html=1;points=[[0,0,0,0,5],[0,1,0,0,-5],[1,0,0,0,5],[1,1,0,0,-5]];perimeter=orthogonalPerimeter;outlineConnect=0;targetShapes=umlLifeline;portConstraint=eastwest;newEdgeStyle={&quot;curved&quot;:0,&quot;rounded&quot;:0};" parent="1" vertex="1">
          <mxGeometry x="280" y="1020" width="10" height="30" as="geometry" />
        </mxCell>
        <mxCell id="DJf0P2irUcEbUrIMb99J-3" style="edgeStyle=orthogonalEdgeStyle;rounded=0;orthogonalLoop=1;jettySize=auto;html=1;curved=0;entryX=1;entryY=0;entryDx=0;entryDy=5;entryPerimeter=0;" parent="1" source="f-BYqIaekQ4qByGMniUM-66" target="DJf0P2irUcEbUrIMb99J-5" edge="1">
          <mxGeometry relative="1" as="geometry">
            <Array as="points">
              <mxPoint x="310" y="1010" />
              <mxPoint x="310" y="1025" />
            </Array>
          </mxGeometry>
        </mxCell>
        <mxCell id="DJf0P2irUcEbUrIMb99J-4" value="&lt;font style=&quot;font-size: 8px;&quot;&gt;Store JWT &amp;amp; extract user&#39;s info&lt;/font&gt;" style="edgeLabel;html=1;align=center;verticalAlign=middle;resizable=0;points=[];fontSize=8;" parent="DJf0P2irUcEbUrIMb99J-3" vertex="1" connectable="0">
          <mxGeometry x="-0.001" y="-2" relative="1" as="geometry">
            <mxPoint x="57" y="5" as="offset" />
          </mxGeometry>
        </mxCell>
      </root>
    </mxGraphModel>
  </diagram>
</mxfile>
